<svg width="16" height="17" viewBox="0 0 16 17" fill="none" xmlns="http://www.w3.org/2000/svg">
<path d="M10.3671 8.89746L9.02712 10.242C8.48371 10.7873 7.52759 10.7991 6.97243 10.242L5.63234 8.89746L0.819336 13.7261C0.998492 13.8089 1.19602 13.8584 1.40602 13.8584H14.5935C14.8035 13.8584 15.001 13.809 15.1801 13.7261L10.3671 8.89746Z" fill="#F0BB00"/>
<path d="M14.5935 2.6084H1.40596C1.19596 2.6084 0.99843 2.65784 0.819336 2.74068L5.96237 7.90077C5.96271 7.90112 5.96312 7.90118 5.96346 7.90152C5.9638 7.90187 5.96387 7.90234 5.96387 7.90234L7.63615 9.58015C7.81377 9.75777 8.18571 9.75777 8.36334 9.58015L10.0353 7.90262C10.0353 7.90262 10.0357 7.90187 10.036 7.90152C10.036 7.90152 10.0368 7.90112 10.0371 7.90077L15.18 2.74065C15.0009 2.65777 14.8035 2.6084 14.5935 2.6084Z" fill="#F0BB00"/>
<path d="M0.149562 3.39648C0.056875 3.58392 0 3.79198 0 4.01486V12.4524C0 12.6752 0.0568125 12.8833 0.149531 13.0707L4.97087 8.23377L0.149562 3.39648Z" fill="#F0BB00"/>
<path d="M15.8506 3.396L11.0293 8.23334L15.8506 13.0704C15.9433 12.8829 16.0001 12.6749 16.0001 12.4519V4.01443C16.0001 3.7915 15.9433 3.58343 15.8506 3.396Z" fill="#F0BB00"/>
</svg>
