<svg width="16" height="17" viewBox="0 0 16 17" fill="none" xmlns="http://www.w3.org/2000/svg">
<g clip-path="url(#clip0_153_490)">
<path d="M14.6543 11.4461L11.8689 10.0558C11.1688 9.7058 10.3187 9.93584 9.89364 10.5959L9.4136 11.331C8.65347 11.051 6.74822 10.1259 5.49303 7.5205L6.4432 6.68541C6.97826 6.21035 7.11825 5.41024 6.76821 4.78514L5.273 2.09981C5.06298 1.72975 4.70793 1.4597 4.29787 1.35966C3.88283 1.25969 3.44276 1.32966 3.08772 1.56471L1.1925 2.80489C0.707387 3.12493 0.437372 3.70004 0.512412 4.27508C0.807427 6.65041 2.55764 14.5465 12.504 16.2667C12.589 16.2817 12.674 16.2917 12.759 16.2917C13.2791 16.2917 13.7642 16.0217 14.0542 15.5666L15.2644 13.6413C15.4944 13.2713 15.5594 12.8263 15.4444 12.4062C15.3294 11.9911 15.0393 11.641 14.6543 11.4461Z" fill="#F0BB00"/>
</g>
<defs>
<clipPath id="clip0_153_490">
<rect width="16" height="16" fill="white" transform="translate(0 0.803711)"/>
</clipPath>
</defs>
</svg>
